<?xml version="1.0" encoding="iso-8859-1"?>
<!-- Generator: Adobe Illustrator 19.0.0, SVG Export Plug-In . SVG Version: 6.00 Build 0)  -->
<svg version="1.1" id="Capa_1" xmlns="http://www.w3.org/2000/svg" xmlns:xlink="http://www.w3.org/1999/xlink" x="0px" y="0px"
	 viewBox="0 0 512.003 512.003" style="enable-background:new 0 0 512.003 512.003;" xml:space="preserve">
<g>
	<g>
		<path d="M292.426,0.963c-3.84-1.728-8.299-1.109-11.435,1.685L113.353,149.336H32.009c-17.643,0-32,14.357-32,32V330.67
			c0,17.643,14.357,32,32,32h81.344l167.637,146.688c1.984,1.749,4.48,2.645,7.019,2.645c1.493,0,3.008-0.32,4.416-0.96
			c3.819-1.728,6.251-5.525,6.251-9.707V10.67C298.676,6.488,296.244,2.691,292.426,0.963z M277.343,477.827L124.361,343.982
			c-1.941-1.707-4.437-2.645-7.019-2.645H32.009c-5.867,0-10.667-4.8-10.667-10.667V181.336c0-5.867,4.8-10.667,10.667-10.667
			h85.333c2.581,0,5.077-0.939,7.019-2.645L277.343,34.179V477.827z"/>
	</g>
</g>
<g>
	<g>
		<path d="M508.874,323.139L359.54,173.806c-4.16-4.16-10.923-4.16-15.083,0c-4.16,4.16-4.16,10.923,0,15.083l149.333,149.333
			c2.091,2.069,4.821,3.115,7.552,3.115c2.731,0,5.461-1.045,7.531-3.115C513.034,334.062,513.034,327.299,508.874,323.139z"/>
	</g>
</g>
<g>
	<g>
		<path d="M508.874,173.806c-4.16-4.16-10.923-4.16-15.083,0L344.457,323.139c-4.16,4.16-4.16,10.923,0,15.083
			c2.091,2.069,4.821,3.115,7.552,3.115c2.731,0,5.461-1.045,7.531-3.115l149.333-149.333
			C513.034,184.728,513.034,177.966,508.874,173.806z"/>
	</g>
</g>
<g>
</g>
<g>
</g>
<g>
</g>
<g>
</g>
<g>
</g>
<g>
</g>
<g>
</g>
<g>
</g>
<g>
</g>
<g>
</g>
<g>
</g>
<g>
</g>
<g>
</g>
<g>
</g>
<g>
</g>
</svg>
