<?xml version="1.0" encoding="utf-8"?>
<!-- Generator: Adobe Illustrator 19.0.0, SVG Export Plug-In . SVG Version: 6.00 Build 0)  -->
<svg version="1.1" id="Layer_1" xmlns="http://www.w3.org/2000/svg" xmlns:xlink="http://www.w3.org/1999/xlink" x="0px" y="0px"
	 viewBox="0 0 96 96" style="enable-background:new 0 0 96 96;" xml:space="preserve">
<style type="text/css">
	.st0{fill:#333333;}
</style>
<g id="XMLID_1_">
	<path id="XMLID_7_" class="st0" d="M63.2,48.1c0,4.7-1.9,9.1-5.1,12.3l-2.9-2.9c2.4-2.4,3.9-5.7,3.9-9.4c0-3.7-1.5-7-3.9-9.4
		l2.9-2.9C61.2,38.9,63.2,43.3,63.2,48.1z M44.6,23.2L28.5,39.3h-8.7c-2.4,0-4.3,1.9-4.3,4.3v8.7c0,2.4,1.9,4.3,4.3,4.3h8.7
		l16.1,16.1c2,2,5.5,0.6,5.5-2.3v-45C50.2,22.6,46.7,21.2,44.6,23.2z M70.4,23.6l-2.9,2.9C73,32,76.4,39.6,76.4,48
		c0,8.4-3.4,16-8.9,21.6l2.9,2.9c6.3-6.3,10.1-14.9,10.1-24.5C80.5,38.4,76.6,29.7,70.4,23.6L70.4,23.6z M64.3,29.7l-3,2.9
		c4,4,6.4,9.5,6.4,15.5s-2.4,11.5-6.4,15.4l3,2.9c4.7-4.7,7.6-11.2,7.6-18.3C71.8,40.9,68.9,34.4,64.3,29.7z"/>
</g>
</svg>
